<?xml version="1.0" encoding="UTF-8"?>
<svg width="1200pt" height="1200pt" version="1.1" viewBox="0 0 1200 1200" xmlns="http://www.w3.org/2000/svg">
 <path d="m1185.4 1.1016c-0.46875 0.46875-0.95703 0.46875-1.4297 0.46875h-149.2-2.3516c-7.0898 0.94141-12.75 7.543-11.809 14.617 0.46875 7.0547 7.5586 12.719 14.164 12.246h119.94l-287.54 286.41c-5.6602 4.7227-6.1328 14.617-0.94141 19.789 5.1914 5.1914 15.102 4.7227 19.824-0.94141l287.06-286.89v119.65c0 6.6016 6.6211 13.188 13.223 13.188 7.0898 0 13.691-6.6016 13.691-13.188v-149.32c0-1.8828 0-3.7812-0.46875-5.6602v-0.46875c-1.8828-5.6641-7.0898-9.8984-13.223-9.8984h-0.94141zm-1058.1 0.46875c-69.402 0-126.54 50.887-126.54 114.95v761.3c-0.46875 7.0742 6.1328 13.66 13.223 13.66 7.0742 0 13.223-6.6016 13.223-13.66v-761.3c0-48.047 43.43-88.102 100.09-88.102h752.12c7.0898 0 13.223-6.6016 13.223-13.188 0-7.0742-6.1328-13.66-13.223-13.66zm1058.1 305.75c-6.6211 0.94141-12.281 7.0547-12.281 14.129v762.24c0 48.047-43.898 88.102-100.09 88.102h-751.19c-7.0742 0-13.691 6.1172-13.691 13.188 0 7.0547 6.6211 13.66 13.691 13.188h751.18c68.949 0 127.03-50.418 127.03-114.48v-762.24c0-7.5273-6.1328-14.129-13.691-14.129h-0.95703zm-863.09 554.94c-2.8242 0-5.6602 1.4102-7.5586 3.7812l-287.54 286.89v-119.2c0.46875-7.0547-6.1328-13.66-13.223-13.66-7.0898 0-13.691 6.6016-13.223 13.66v147.45c-3.7812 9.4258 7.5586 20.715 17 16.969h147.77c7.0898 0.45312 13.691-6.1328 13.691-13.188 0-7.0742-6.6016-13.188-13.691-13.188h-119.45l287.54-286.89c8.5039-7.5469 0.003906-24.516-11.32-22.633z"/>
</svg>
